<?xml version="1.0" encoding="UTF-8" standalone="no"?>
<svg width="44px" height="44px" viewBox="0 0 44 44" version="1.1" xmlns="http://www.w3.org/2000/svg" xmlns:xlink="http://www.w3.org/1999/xlink">
    <!-- Generator: Sketch 47.1 (45422) - http://www.bohemiancoding.com/sketch -->
    <title>Link/Instagram</title>
    <desc>Created with Sketch.</desc>
    <defs></defs>
    <g id="Symbols" stroke="none" stroke-width="1" fill="none" fill-rule="evenodd">
        <g id="Link/Instagram" fill-rule="nonzero" fill="#0073E6">
            <path d="M27.1865,11.5536667 C25.8335,11.4913333 25.4265,11.4803333 22,11.4803333 C18.5735,11.4803333 18.1683333,11.4931667 16.8153333,11.5536667 C13.3338333,11.7131667 11.7131667,13.3613333 11.5536667,16.8153333 C11.4931667,18.1683333 11.4785,18.5735 11.4785,22 C11.4785,25.4265 11.4931667,25.8316667 11.5536667,27.1865 C11.7131667,30.6313333 13.3265,32.2886667 16.8153333,32.4481667 C18.1665,32.5086667 18.5735,32.5233333 22,32.5233333 C25.4283333,32.5233333 25.8335,32.5105 27.1865,32.4481667 C30.668,32.2905 32.2868333,30.6368333 32.4481667,27.1865 C32.5086667,25.8335 32.5215,25.4265 32.5215,22 C32.5215,18.5735 32.5086667,18.1683333 32.4481667,16.8153333 C32.2868333,13.3631667 30.6643333,11.7131667 27.1865,11.5536667 Z M22,28.5908333 C18.3608333,28.5908333 15.4091667,25.641 15.4091667,22 C15.4091667,18.3608333 18.3608333,15.411 22,15.411 C25.6391667,15.411 28.5908333,18.3608333 28.5908333,22 C28.5908333,25.6391667 25.6391667,28.5908333 22,28.5908333 Z M28.8511667,16.6906667 C28.0005,16.6906667 27.3111667,16.0013333 27.3111667,15.1506667 C27.3111667,14.3 28.0005,13.6106667 28.8511667,13.6106667 C29.7018333,13.6106667 30.3911667,14.3 30.3911667,15.1506667 C30.3911667,15.9995 29.7018333,16.6906667 28.8511667,16.6906667 L28.8511667,16.6906667 Z M26.2771667,22 C26.2771667,24.3631667 24.3613333,26.2771667 22,26.2771667 C19.6386667,26.2771667 17.7228333,24.3631667 17.7228333,22 C17.7228333,19.6368333 19.6386667,17.7228333 22,17.7228333 C24.3613333,17.7228333 26.2771667,19.6368333 26.2771667,22 Z M22,0 C9.8505,0 0,9.8505 0,22 C0,34.1495 9.8505,44 22,44 C34.1495,44 44,34.1495 44,22 C44,9.8505 34.1495,0 22,0 Z M34.7563333,27.291 C34.5455,31.9568333 31.9476667,34.5418333 27.2928333,34.7563333 C25.9233333,34.8186667 25.4851667,34.8333333 22,34.8333333 C18.5148333,34.8333333 18.0785,34.8186667 16.709,34.7563333 C12.045,34.5418333 9.45816667,31.9531667 9.24366667,27.291 C9.18133333,25.9233333 9.16666667,25.4851667 9.16666667,22 C9.16666667,18.5148333 9.18133333,18.0785 9.24366667,16.709 C9.45816667,12.045 12.0468333,9.45816667 16.709,9.2455 C18.0785,9.18133333 18.5148333,9.16666667 22,9.16666667 C25.4851667,9.16666667 25.9233333,9.18133333 27.2928333,9.2455 C31.9586667,9.46 34.5473333,12.0541667 34.7563333,16.709 C34.8186667,18.0785 34.8333333,18.5148333 34.8333333,22 C34.8333333,25.4851667 34.8186667,25.9233333 34.7563333,27.291 Z" id="Shape"></path>
        </g>
    </g>
</svg>
