<?xml version="1.0" encoding="UTF-8" standalone="no"?>
<svg width="44px" height="44px" viewBox="0 0 44 44" version="1.1" xmlns="http://www.w3.org/2000/svg" xmlns:xlink="http://www.w3.org/1999/xlink">
    <!-- Generator: Sketch 47.1 (45422) - http://www.bohemiancoding.com/sketch -->
    <title>Link/Facebook</title>
    <desc>Created with Sketch.</desc>
    <defs></defs>
    <g id="Symbols" stroke="none" stroke-width="1" fill="none" fill-rule="evenodd">
        <g id="Link/Facebook" fill-rule="nonzero" fill="#0073E6">
            <path d="M22,0 C9.8505,0 0,9.8505 0,22 C0,34.1495 9.8505,44 22,44 C34.1495,44 44,34.1495 44,22 C44,9.8505 34.1495,0 22,0 Z M27.6774194,14.7004608 L25.2138249,14.7004608 C24.2320369,14.7004608 24.0276498,15.1037604 24.0276498,16.1202212 L24.0276498,18.3502304 L27.6774194,18.3502304 L27.2960184,22 L24.0276498,22 L24.0276498,34.7741935 L18.5529954,34.7741935 L18.5529954,22 L14.9032258,22 L14.9032258,18.3502304 L18.5529954,18.3502304 L18.5529954,14.1383963 C18.5529954,10.9101751 20.2519631,9.22580645 24.0805714,9.22580645 L27.6774194,9.22580645 L27.6774194,14.7004608 Z" id="Shape"></path>
        </g>
    </g>
</svg>
