<?xml version="1.0" encoding="UTF-8" standalone="no"?>
<svg width="44px" height="44px" viewBox="0 0 44 44" version="1.1" xmlns="http://www.w3.org/2000/svg" xmlns:xlink="http://www.w3.org/1999/xlink">
    <!-- Generator: Sketch 47.1 (45422) - http://www.bohemiancoding.com/sketch -->
    <title>Link/Twitter</title>
    <desc>Created with Sketch.</desc>
    <defs></defs>
    <g id="Symbols" stroke="none" stroke-width="1" fill="none" fill-rule="evenodd">
        <g id="Link/Twitter" fill-rule="nonzero" fill="#0073E6">
            <path d="M22,0 C9.8505,0 0,9.8505 0,22 C0,34.1495 9.8505,44 22,44 C34.1495,44 44,34.1495 44,22 C44,9.8505 34.1495,0 22,0 Z M33.121,17.6825 C33.4565,25.0891667 27.9326667,33.3465 18.1536667,33.3465 C15.18,33.3465 12.4135,32.4738333 10.0833333,30.9796667 C12.8773333,31.3096667 15.6658333,30.5323333 17.8786667,28.7998333 C15.576,28.7576667 13.6308333,27.2341667 12.958,25.1423333 C13.7848333,25.3 14.5988333,25.2541667 15.3376667,25.0525 C12.8058333,24.5428333 11.0568333,22.2621667 11.1136667,19.822 C11.825,20.2161667 12.6353333,20.4526667 13.4988333,20.4801667 C11.154,18.9126667 10.4903333,15.8161667 11.869,13.4493333 C14.465,16.6356667 18.3461667,18.7311667 22.7223333,18.9511667 C21.9541667,15.6585 24.453,12.485 27.8538333,12.485 C29.3663333,12.485 30.7358333,13.1248333 31.6965,14.1478333 C32.8955,13.9131667 34.0248333,13.4731667 35.0405,12.87 C34.6463333,14.1001667 33.8121667,15.1305 32.725,15.7831667 C33.7901667,15.6548333 34.8058333,15.3725 35.7481667,14.9526667 C35.0441667,16.0123333 34.1531667,16.94 33.121,17.6825 L33.121,17.6825 Z" id="Shape"></path>
        </g>
    </g>
</svg>
